<?xml version="1.0" encoding="UTF-8"?>
<svg version="1.1" xmlns="http://www.w3.org/2000/svg" width="24" height="23">
<path d="M0 0 C0.66 0 1.32 0 2 0 C2.33 0.94875 2.66 1.8975 3 2.875 C5.17283915 6.27006117 5.51890422 6.49193978 9.1875 7.375 C10.445625 7.58125 11.70375 7.7875 13 8 C11.7625 9.2375 11.7625 9.2375 10.5 10.5 C8.2385682 13.16275632 7.65644487 14.88440321 7.6875 18.375 C7.790625 19.57125 7.89375 20.7675 8 22 C7.29875 21.649375 6.5975 21.29875 5.875 20.9375 C1.52406501 19.51871685 -1.75566429 20.58522143 -6 22 C-5.8453125 20.205625 -5.8453125 20.205625 -5.6875 18.375 C-5.65644487 14.88440321 -6.2385682 13.16275632 -8.5 10.5 C-9.325 9.675 -10.15 8.85 -11 8 C-9.1128125 7.690625 -9.1128125 7.690625 -7.1875 7.375 C-3.51890422 6.49193978 -3.17283915 6.27006117 -1 2.875 C-0.67 1.92625 -0.34 0.9775 0 0 Z " fill="#FFC319" transform="translate(11,1)"/>
</svg>
